# xmcd
#
# Track frame offsets:
#	182
#	15940
#	31935
#	49940
#	64602
#	76260
#	92122
#	106530
#	125830
#	140422
#	150557
#
# Disc length: 2244 seconds
#
# Revision: 0
# Processed by: cddbd v1.5.2PL0 Copyright (c) Steve Scherf et al.
# Submitted via: audiograbber 1.83.01
#
DISCID=7e08c20b
DTITLE=Donna Kay - Out of the Blue
DYEAR=1994
DGENRE=Country
TTITLE0=Just Enough Rope
TTITLE1=Hunger
TTITLE2=Jump Into My Fire
TTITLE3=I Can't Stop Loving You
TTITLE4=Tear It Up
TTITLE5=Little By Little
TTITLE6=Day After Day
TTITLE7=Hosanna
TTITLE8=Love Crazy
TTITLE9=Love Letters in the Sand
TTITLE10=Dreams
EXTD=
EXTT0=
EXTT1=
EXTT2=
EXTT3=
EXTT4=
EXTT5=
EXTT6=
EXTT7=
EXTT8=
EXTT9=
EXTT10=
PLAYORDER=
